<mxfile host="app.diagrams.net" agent="Mozilla/5.0 (Windows NT 10.0; Win64; x64) AppleWebKit/537.36 (KHTML, like Gecko) Chrome/141.0.0.0 Safari/537.36" version="28.2.8">
  <diagram name="Page-1" id="JtUCsBGIEPrsKYANarGw">
    <mxGraphModel dx="1281" dy="696" grid="1" gridSize="10" guides="1" tooltips="1" connect="1" arrows="1" fold="1" page="1" pageScale="1" pageWidth="1169" pageHeight="827" math="0" shadow="0">
      <root>
        <mxCell id="0" />
        <mxCell id="1" parent="0" />
        <mxCell id="yuEKqS6hPZxSTjLv0iLo-1" value="TecFood - Web" style="text;html=1;whiteSpace=wrap;strokeColor=none;fillColor=#FFCC99;align=left;verticalAlign=middle;rounded=0;gradientColor=none;fillStyle=solid;fontSize=16;fontStyle=1" vertex="1" parent="1">
          <mxGeometry x="10" y="10" width="1150" height="30" as="geometry" />
        </mxCell>
        <mxCell id="yuEKqS6hPZxSTjLv0iLo-2" value="" style="sketch=0;aspect=fixed;pointerEvents=1;shadow=0;dashed=0;html=1;strokeColor=none;labelPosition=center;verticalLabelPosition=bottom;verticalAlign=top;align=center;fillColor=#00188D;shape=mxgraph.mscae.enterprise.server_generic" vertex="1" parent="1">
          <mxGeometry x="600" y="330" width="24" height="50" as="geometry" />
        </mxCell>
      </root>
    </mxGraphModel>
  </diagram>
</mxfile>
